<?xml version="1.0" encoding="UTF-8" standalone="no"?>
<svg
   width="56.629379pt"
   height="56.629372pt"
   viewBox="0 0 56.629381 56.629371"
   version="1.1"
   id="svg27"
   sodipodi:docname="Figure_1.svg"
   inkscape:version="1.1.2 (0a00cf5339, 2022-02-04)"
   xmlns:inkscape="http://www.inkscape.org/namespaces/inkscape"
   xmlns:sodipodi="http://sodipodi.sourceforge.net/DTD/sodipodi-0.dtd"
   xmlns="http://www.w3.org/2000/svg"
   xmlns:svg="http://www.w3.org/2000/svg"
   xmlns:rdf="http://www.w3.org/1999/02/22-rdf-syntax-ns#"
   xmlns:cc="http://creativecommons.org/ns#"
   xmlns:dc="http://purl.org/dc/elements/1.1/">
  <sodipodi:namedview
     id="namedview29"
     pagecolor="#ffffff"
     bordercolor="#666666"
     borderopacity="1.0"
     inkscape:pageshadow="2"
     inkscape:pageopacity="0.0"
     inkscape:pagecheckerboard="0"
     inkscape:document-units="pt"
     showgrid="false"
     showborder="false"
     fit-margin-top="0"
     fit-margin-left="0"
     fit-margin-right="0"
     fit-margin-bottom="0"
     inkscape:zoom="0.5251736"
     inkscape:cx="-332.27108"
     inkscape:cy="-155.18678"
     inkscape:window-width="1204"
     inkscape:window-height="656"
     inkscape:window-x="76"
     inkscape:window-y="27"
     inkscape:window-maximized="1"
     inkscape:current-layer="svg27" />
  <metadata
     id="metadata2">
    <rdf:RDF>
      <cc:Work>
        <dc:type
           rdf:resource="http://purl.org/dc/dcmitype/StillImage" />
        <dc:date>2023-12-20T14:43:54.076047</dc:date>
        <dc:format>image/svg+xml</dc:format>
        <dc:creator>
          <cc:Agent>
            <dc:title>Matplotlib v3.5.1, https://matplotlib.org/</dc:title>
          </cc:Agent>
        </dc:creator>
      </cc:Work>
    </rdf:RDF>
  </metadata>
  <defs
     id="defs6">
    <style
       type="text/css"
       id="style4">*{stroke-linejoin: round; stroke-linecap: butt}</style>
  </defs>
  <g
     id="patch_1"
     transform="translate(-346.25888,-246.08496)">
    <path
       d="M 0,345.6 H 460.8 V 0 H 0 Z"
       style="fill:#ffffff"
       id="path8" />
  </g>
  <path
     d="m 236.16,295.488 c 32.07897,0 62.84838,-12.74511 85.53164,-35.42836 C 344.37489,237.37638 357.12,206.60697 357.12,174.528 357.12,142.44903 344.37489,111.67962 321.69164,88.996364 299.00838,66.313109 268.23897,53.568 236.16,53.568 c -32.07897,0 -62.84838,12.745109 -85.53164,35.428364 C 127.94511,111.67962 115.2,142.44903 115.2,174.528 c 0,32.07897 12.74511,62.84838 35.42836,85.53164 22.68326,22.68325 53.45267,35.42836 85.53164,35.42836 z"
     clip-path="url(#p443ba2a43c)"
     style="fill:#1f77b4"
     id="path11"
     transform="translate(-528.90084,-233.62614)" />
  <path
     d="m 236.16,295.488 c 18.25437,0 35.76355,-7.25254 48.67134,-20.16033 12.90779,-12.90779 20.16032,-30.41696 20.16032,-48.67133 0,-18.25438 -7.25253,-35.76355 -20.16032,-48.67134 -12.90779,-12.90779 -30.41697,-20.16033 -48.67134,-20.16033 -18.25437,0 -35.76355,7.25254 -48.67134,20.16033 -12.90779,12.90779 -20.16033,30.41696 -20.16033,48.67134 0,18.25437 7.25254,35.76354 20.16033,48.67133 12.90779,12.90779 30.41697,20.16033 48.67134,20.16033 z"
     clip-path="url(#p443ba2a43c)"
     style="fill:#1f77b4"
     id="path13"
     transform="translate(-235.80883,-326.84794)" />
  <path
     d="m 236.16,295.488 c 10.07466,0 19.73805,-4.00271 26.86191,-11.12657 7.12387,-7.12386 11.12657,-16.78725 11.12657,-26.86191 0,-10.07466 -4.0027,-19.73805 -11.12657,-26.86191 -7.12386,-7.12387 -16.78725,-11.12657 -26.86191,-11.12657 -10.07466,0 -19.73805,4.0027 -26.86191,11.12657 -7.12387,7.12386 -11.12657,16.78725 -11.12657,26.86191 0,10.07466 4.0027,19.73805 11.12657,26.86191 7.12386,7.12386 16.78725,11.12657 26.86191,11.12657 z"
     clip-path="url(#p443ba2a43c)"
     style="fill:#1f77b4"
     id="path15"
     transform="translate(-356.38005,-187.31067)" />
  <path
     d="m 236.16,295.488 c 7.50914,0 14.71174,-2.98341 20.02151,-8.29318 5.30976,-5.30976 8.29318,-12.51236 8.29318,-20.02151 0,-7.50914 -2.98342,-14.71174 -8.29318,-20.0215 -5.30977,-5.30977 -12.51237,-8.29318 -20.02151,-8.29318 -7.50914,0 -14.71174,2.98341 -20.02151,8.29318 -5.30976,5.30976 -8.29318,12.51236 -8.29318,20.0215 0,7.50915 2.98342,14.71175 8.29318,20.02151 5.30977,5.30977 12.51237,8.29318 20.02151,8.29318 z"
     clip-path="url(#p443ba2a43c)"
     style="fill:#1f77b4"
     id="path17"
     transform="translate(-207.84531,-238.85863)" />
  <defs
     id="defs25">
    <clipPath
       id="p443ba2a43c">
      <rect
         x="103.104"
         y="41.472"
         width="266.112"
         height="266.112"
         id="rect22" />
    </clipPath>
  </defs>
</svg>
